<?xml version="1.0" encoding="utf-8"?>
<!-- Generator: Adobe Illustrator 25.2.1, SVG Export Plug-In . SVG Version: 6.00 Build 0)  -->
<svg version="1.1" id="Layer_1" xmlns="http://www.w3.org/2000/svg" xmlns:xlink="http://www.w3.org/1999/xlink" x="0px" y="0px"
	 viewBox="0 0 375.88 45.68" style="enable-background:new 0 0 375.88 45.68;" xml:space="preserve">
<style type="text/css">
	.st0{fill:url(#SVGID_1_);}
	.st1{display:none;fill:#CC2332;}
	.st2{fill:url(#SVGID_2_);}
	.st3{fill:#CC2332;}
	.st4{fill:#FFFFFF;}
	.st5{fill:url(#SVGID_3_);}
	.st6{fill:url(#SVGID_4_);}
	.st7{fill:#101010;}
</style>
<g>
	<g id="mark_1_">
		<g>
			<linearGradient id="SVGID_1_" gradientUnits="userSpaceOnUse" x1="26.8965" y1="-2.7775" x2="18.7819" y2="48.4559">
				<stop  offset="0" style="stop-color:#F16447"/>
				<stop  offset="1" style="stop-color:#EF4952"/>
			</linearGradient>
			<path class="st0" d="M44.33,0h-29.1v7.61h22.84v30.45H7.61V16.3V7.61V0H1.35C0.61,0,0,0.61,0,1.35v42.97
				c0,0.75,0.61,1.35,1.35,1.35h42.97c0.75,0,1.35-0.61,1.35-1.35V1.35C45.68,0.61,45.07,0,44.33,0z"/>
		</g>
		<path class="st1" d="M15.21,16.58V29.1c0,0.75,0.61,1.35,1.35,1.35h12.52c0.75,0,1.35-0.61,1.35-1.35V16.58
			c0-0.75-0.61-1.35-1.35-1.35H16.56C15.81,15.23,15.21,15.83,15.21,16.58z"/>
		<g>
			<g>
				<g>
					<linearGradient id="SVGID_2_" gradientUnits="userSpaceOnUse" x1="25.4539" y1="10.2616" x2="21.7267" y2="33.7719">
						<stop  offset="0" style="stop-color:#F16447"/>
						<stop  offset="1" style="stop-color:#EF4952"/>
					</linearGradient>
					<path class="st2" d="M17.24,13.49l0,0.02l7.18,9.33l-11.49,9.33l0,0.02h11.61c3.39,0,6.32-2.34,7.09-5.64l0.96-4.16
						c1.05-4.56-2.41-8.91-7.09-8.91H17.24z"/>
				</g>
			</g>
			<polygon class="st3" points="24.41,22.86 19.36,32.19 12.92,32.19 			"/>
		</g>
	</g>
	<g id="text_1_">
		<path class="st7" d="M94.77,5.08c-1.25-0.72-2.7-1.2-4.37-1.44c-1.67-0.24-3.35-0.36-5.05-0.36H70.76L63.93,42.4h16.02
			c1.73,0,3.51-0.18,5.33-0.55c1.82-0.37,3.49-0.98,5.04-1.82c1.54-0.85,2.86-1.96,3.98-3.34c1.12-1.38,1.86-3.1,2.23-5.16
			c0.23-1.25,0.23-2.43,0.01-3.54c-0.22-1.11-0.62-2.07-1.22-2.9c-0.6-0.83-1.37-1.51-2.33-2.04c-0.96-0.54-2.06-0.89-3.31-1.08
			l0-0.11c2.12-0.63,3.93-1.66,5.44-3.12c1.51-1.46,2.45-3.29,2.82-5.5c0.37-2.14,0.24-3.85-0.37-5.14
			C96.94,6.8,96.01,5.79,94.77,5.08z M88.11,30.52c-0.14,0.85-0.45,1.56-0.91,2.15s-0.99,1.07-1.6,1.44
			c-0.6,0.37-1.26,0.63-1.99,0.78c-0.72,0.15-1.42,0.22-2.08,0.22H73.8l1.58-8.9h6.52c0.7,0,1.45,0.05,2.23,0.17
			c0.79,0.11,1.51,0.31,2.16,0.61c0.66,0.3,1.16,0.73,1.51,1.3C88.14,28.85,88.25,29.6,88.11,30.52z M89.05,14.66
			c-0.14,0.78-0.41,1.44-0.82,1.99c-0.4,0.55-0.9,0.99-1.48,1.32c-0.58,0.33-1.21,0.57-1.87,0.72c-0.67,0.15-1.34,0.22-2,0.22h-6.24
			l1.45-8.34h5.85c0.67,0,1.33,0.06,2.01,0.19c0.67,0.13,1.26,0.34,1.77,0.63c0.51,0.3,0.89,0.71,1.14,1.25
			C89.12,13.18,89.18,13.85,89.05,14.66z"/>
		<path class="st7" d="M150.52,12.4c0.46-0.51,1-0.93,1.62-1.24c0.62-0.31,1.28-0.54,1.98-0.69c0.71-0.15,1.37-0.22,2-0.22
			c1.07,0,2.17,0.21,3.3,0.64c1.12,0.42,1.97,1.08,2.53,1.96l7.02-6.47c-1.39-1.47-3.05-2.52-5-3.15c-1.95-0.63-4.03-0.94-6.24-0.94
			c-1.92,0-3.82,0.27-5.72,0.8c-1.9,0.53-3.64,1.34-5.23,2.4c-1.58,1.07-2.93,2.39-4.04,3.98c-1.1,1.58-1.84,3.42-2.21,5.52
			c-0.37,2.17-0.22,3.92,0.45,5.25c0.67,1.32,1.62,2.39,2.85,3.2c1.22,0.81,2.58,1.45,4.07,1.93c1.49,0.48,2.87,0.96,4.15,1.44
			c1.28,0.48,2.31,1.06,3.12,1.74c0.8,0.68,1.09,1.61,0.87,2.79c-0.13,0.7-0.42,1.31-0.86,1.82c-0.45,0.52-0.98,0.94-1.62,1.27
			c-0.63,0.33-1.32,0.58-2.07,0.75c-0.74,0.17-1.47,0.25-2.16,0.25c-1.44,0-2.76-0.32-3.97-0.97c-1.21-0.64-2.17-1.56-2.86-2.74
			l-7.36,6.74c1.6,1.73,3.41,2.98,5.45,3.76c2.04,0.77,4.33,1.16,6.87,1.16c2.03,0,4-0.26,5.91-0.77c1.92-0.51,3.66-1.31,5.22-2.38
			c1.56-1.07,2.9-2.41,4.01-4.03c1.11-1.62,1.85-3.52,2.22-5.69c0.31-1.7,0.32-3.14,0.01-4.34c-0.31-1.2-0.82-2.19-1.53-2.98
			c-0.71-0.79-1.56-1.45-2.55-1.96c-0.99-0.52-2.02-0.96-3.08-1.33c-1.06-0.37-2.1-0.7-3.14-0.99c-1.04-0.29-1.95-0.64-2.73-1.02
			c-0.78-0.39-1.37-0.87-1.77-1.43c-0.41-0.57-0.54-1.3-0.4-2.19C149.76,13.54,150.05,12.91,150.52,12.4z"/>
		<path class="st7" d="M245.92,3.28l-4.14,23.7c-0.22,1.21-0.63,2.34-1.2,3.37c-0.57,1.03-1.27,1.92-2.11,2.68s-1.77,1.34-2.8,1.77
			c-1.03,0.42-2.11,0.63-3.26,0.63s-2.16-0.21-3.04-0.63c-0.89-0.42-1.62-1.01-2.2-1.77s-0.97-1.65-1.18-2.68
			c-0.2-1.03-0.19-2.16,0.04-3.37l4.14-23.7h-8.62l-4.2,24.04c-0.41,2.32-0.45,4.45-0.09,6.41c0.36,1.95,1.1,3.65,2.23,5.09
			c1.13,1.43,2.65,2.56,4.58,3.37c1.93,0.81,4.25,1.21,6.98,1.21c2.69,0,5.13-0.41,7.33-1.21c2.2-0.81,4.12-1.94,5.75-3.37
			c1.64-1.44,2.98-3.13,4.02-5.09c1.04-1.95,1.78-4.09,2.19-6.41l4.2-24.04H245.92z"/>
		<path class="st7" d="M275.88,3.28L252.14,42.4h9.5l4.71-8.29h15.19l1.92,8.29h9.73L283.01,3.28H275.88z M270.31,26.82l6.89-12.16
			l2.67,12.16H270.31z"/>
		<polygon class="st7" points="374.53,10.94 375.88,3.28 346.09,3.28 339.2,42.4 368.98,42.4 370.33,34.74 349.1,34.74 
			350.55,26.53 364.07,26.53 365.42,18.87 351.9,18.87 353.29,10.94 		"/>
		<polygon class="st7" points="111.35,26.53 124.87,26.53 126.22,18.87 112.7,18.87 114.1,10.94 135.34,10.94 136.69,3.28 
			106.9,3.28 100,42.4 129.79,42.4 131.14,34.74 109.9,34.74 		"/>
		<path class="st7" d="M323.47,3.28h-17.88l-6.9,39.12h8.61l5.53-31.35h8.55c4.19,0,6.43,1.9,5.78,5.59l-0.02,0.11
			c-0.58,3.3-3.38,5.53-7.57,5.53h-6.49l9.36,20.12h10.06l-7.09-13.97c5.3-1.84,9.41-5.81,10.52-12.13l0.02-0.11
			c0.65-3.69,0.02-6.76-1.78-8.94C332.05,4.68,328.44,3.28,323.47,3.28z"/>
		<path class="st7" d="M207.21,33.98c0.79-1.03,1.5-2.14,2.12-3.34c1.28-2.48,2.09-5.25,2.41-8.3c0.32-3.06,0.1-5.82-0.67-8.3
			s-1.97-4.59-3.62-6.34c-1.65-1.74-3.69-3.08-6.1-4.02c-2.42-0.93-5.12-1.4-8.1-1.4c-2.98,0-5.78,0.47-8.4,1.4
			c-2.61,0.93-4.93,2.27-6.94,4.02c-2.02,1.74-3.67,3.86-4.95,6.34c-1.28,2.48-2.09,5.25-2.41,8.3c-0.32,3.06-0.1,5.82,0.67,8.3
			c0.77,2.48,1.97,4.59,3.62,6.34c1.65,1.74,3.68,3.08,6.1,4.02c2.42,0.93,5.12,1.4,8.1,1.4c2.98,0,5.78-0.47,8.4-1.4
			c1.34-0.48,2.59-1.06,3.77-1.75l2.96,3.16h10.93l-8.53-7.72C206.97,34.32,207.21,33.98,207.21,33.98z M203.01,22.34
			c-0.19,1.8-0.64,3.44-1.35,4.93c-0.08,0.17-0.18,0.33-0.26,0.49l-0.37,0.59l-3.77-3.84h-9.76l8.18,8.81
			c-0.28,0.13-0.55,0.27-0.84,0.38c-1.52,0.61-3.18,0.92-4.98,0.92c-1.8,0-3.39-0.31-4.78-0.92c-1.39-0.61-2.55-1.46-3.48-2.56
			c-0.93-1.1-1.59-2.39-1.99-3.88c-0.4-1.49-0.51-3.14-0.32-4.93c0.18-1.76,0.63-3.4,1.35-4.91c0.72-1.51,1.65-2.81,2.81-3.91
			c1.16-1.1,2.5-1.95,4.02-2.56c1.52-0.61,3.18-0.92,4.98-0.92c1.8,0,3.39,0.31,4.78,0.92c1.39,0.61,2.55,1.47,3.48,2.56
			c0.93,1.1,1.59,2.4,1.99,3.91C203.08,18.95,203.19,20.58,203.01,22.34z"/>
	</g>
</g>
</svg>
